<?xml version="1.0" standalone="no"?>
<!DOCTYPE svg PUBLIC "-//W3C//DTD SVG 20010904//EN"
 "http://www.w3.org/TR/2001/REC-SVG-20010904/DTD/svg10.dtd">
<svg version="1.0" xmlns="http://www.w3.org/2000/svg"
 width="475.000000pt" height="475.000000pt" viewBox="0 0 475.000000 475.000000"
 preserveAspectRatio="xMidYMid meet">
<metadata>
Created by potrace 1.14, written by Peter Selinger 2001-2017
</metadata>
<g transform="translate(0.000000,475.000000) scale(0.100000,-0.100000)"
fill="#000000" stroke="none">
<path d="M2290 4333 c-14 -2 -52 -11 -85 -20 -34 -8 -113 -16 -180 -18 -139
-2 -221 -24 -325 -85 -36 -20 -81 -41 -100 -44 -32 -7 -127 -36 -238 -73 -23
-8 -67 -35 -98 -60 -57 -47 -168 -173 -159 -182 3 -2 24 5 48 17 53 26 128 41
109 21 -16 -17 -15 -29 1 -29 7 0 18 9 25 20 10 16 23 20 65 19 28 0 61 -4 72
-8 17 -7 13 -11 -25 -33 -25 -14 -63 -29 -85 -33 -116 -20 -274 -113 -371
-218 -30 -32 -57 -57 -60 -55 -6 7 71 116 115 163 40 43 89 121 69 109 -73
-43 -168 -154 -220 -259 -17 -33 -40 -66 -52 -74 -11 -8 -53 -47 -93 -87 -56
-57 -82 -94 -119 -171 -27 -54 -67 -118 -89 -143 -57 -63 -122 -161 -155 -234
-28 -62 -70 -212 -70 -251 0 -12 -22 -71 -49 -131 -89 -199 -113 -284 -118
-414 -4 -94 -11 -134 -38 -220 -48 -151 -73 -353 -60 -481 l7 -69 791 0 790 0
-6 -172 c-4 -95 -10 -247 -14 -336 l-6 -164 -26 7 c-14 4 -60 9 -102 12 -100
7 -175 -14 -231 -65 -38 -34 -88 -119 -88 -149 0 -10 63 -13 282 -13 l281 0
-7 273 c-3 149 -9 347 -13 440 l-6 167 663 0 663 0 -6 -173 c-4 -94 -10 -246
-14 -335 l-6 -164 -26 7 c-14 4 -60 9 -102 12 -100 7 -175 -14 -231 -65 -38
-34 -88 -119 -88 -149 0 -10 63 -13 282 -13 l281 0 -7 272 c-3 150 -9 348 -13
441 l-6 167 710 0 710 0 39 28 c68 50 149 147 194 232 l43 83 -6 136 c-4 81
-15 170 -27 221 -30 128 -38 175 -49 293 -10 105 -31 181 -89 322 -12 28 -33
91 -47 140 -15 50 -42 122 -60 160 -18 39 -47 108 -65 155 -35 93 -103 217
-160 295 -21 28 -49 73 -63 100 -37 74 -114 172 -169 216 -27 21 -68 65 -92
96 -61 83 -137 148 -225 190 -42 21 -93 52 -115 70 -55 46 -180 108 -256 128
-35 9 -77 26 -92 36 -40 29 -165 84 -223 99 -30 8 -122 14 -225 16 -115 1
-199 7 -245 18 -65 15 -187 19 -245 9z m315 -65 c44 -13 53 -20 77 -64 l27
-49 -29 -12 c-25 -11 -41 -10 -102 6 -127 34 -271 36 -352 5 -12 -4 -64 91
-55 100 2 2 29 11 59 20 67 19 296 15 375 -6z m304 -12 c-2 -2 -41 -22 -86
-45 l-83 -41 -20 39 -20 40 23 4 c28 5 192 8 186 3z m-757 -61 c15 -27 28 -52
28 -55 0 -3 -23 -19 -50 -35 -28 -16 -49 -34 -47 -40 2 -5 30 -13 63 -17 72
-9 87 -15 79 -28 -8 -13 18 -13 31 -1 5 6 38 11 73 13 63 3 64 3 76 37 6 19
17 37 25 39 9 3 11 -1 7 -13 -21 -54 -20 -65 8 -65 14 0 24 4 20 9 -9 15 46
54 59 41 8 -8 4 -16 -13 -29 l-24 -19 24 -7 c13 -4 51 -17 84 -28 l60 -22
-130 -6 c-112 -4 -145 -2 -239 18 -138 29 -185 29 -321 -2 -116 -26 -152 -30
-173 -17 -20 13 -3 40 43 67 23 14 50 34 59 44 16 18 16 19 -15 30 -18 6 -50
11 -73 11 -23 0 -61 6 -85 14 l-45 13 45 26 c96 56 179 77 304 74 l100 -2 27
-50z m925 25 c79 -28 162 -80 179 -112 l14 -28 -62 35 c-111 61 -199 65 -378
20 -30 -8 -56 -12 -58 -10 -6 6 211 114 231 114 10 1 43 -8 74 -19z m369 -161
c45 -22 92 -51 103 -63 l22 -23 -67 -27 -67 -27 -49 48 c-49 48 -69 77 -83
122 -7 22 -5 23 27 17 18 -4 70 -25 114 -47z m-1773 4 c15 -20 24 -39 21 -42
-7 -7 -64 55 -64 69 0 20 17 9 43 -27z m1477 -3 c0 -16 -23 -60 -32 -60 -11 0
-10 14 4 45 11 25 28 34 28 15z m-190 -112 c25 -44 45 -51 36 -12 -5 20 -4 25
6 22 7 -3 39 -14 71 -24 32 -10 63 -26 68 -36 8 -14 14 -16 29 -8 13 7 30 5
62 -10 l43 -19 9 22 c8 21 9 20 19 -12 6 -18 19 -43 30 -55 24 -27 89 -166 77
-166 -5 0 -14 -2 -22 -5 -7 -3 -45 18 -83 46 -89 65 -169 105 -248 125 -34 9
-87 32 -118 51 -31 19 -83 45 -115 58 l-59 25 39 0 c27 0 47 -7 63 -22 26 -25
40 -19 24 10 -8 15 -8 22 2 25 7 4 -5 21 -33 47 l-45 41 62 -33 c44 -23 68
-44 83 -70z m-200 47 c0 -35 -4 -45 -16 -45 -13 0 -15 7 -10 31 3 17 6 38 6
45 0 8 5 14 10 14 6 0 10 -20 10 -45z m-1374 -9 c-3 -14 -11 -26 -16 -26 -11
0 -14 53 -3 64 13 12 26 -13 19 -38z m885 -42 c119 -21 117 -20 145 -76 14
-27 24 -51 22 -52 -2 -1 -93 -41 -203 -89 l-200 -86 -70 139 c-38 76 -67 141
-65 144 3 2 37 11 75 19 92 20 194 21 296 1z m1409 -28 c27 -13 72 -41 100
-61 57 -42 145 -144 133 -155 -12 -11 -216 -90 -231 -90 -8 0 -38 7 -67 15
l-53 16 -22 72 c-12 40 -33 92 -46 116 -13 24 -23 45 -21 47 7 7 133 63 145
63 6 1 34 -10 62 -23z m-1076 7 l39 -6 -74 -38 c-41 -21 -79 -38 -86 -39 -11
0 -53 63 -53 81 0 10 115 12 174 2z m-672 -148 c40 -79 70 -146 68 -148 -18
-16 -405 -176 -411 -170 -4 5 -48 85 -98 178 -102 193 -103 173 4 225 88 43
158 59 268 59 l97 1 72 -145z m872 111 c36 -13 90 -38 120 -56 51 -31 56 -38
111 -156 32 -69 56 -126 54 -128 -9 -8 -358 -156 -367 -156 -10 0 -227 398
-221 404 7 7 224 115 231 115 4 1 37 -10 72 -23z m-1337 -275 l92 -179 -221
-96 c-121 -54 -226 -95 -232 -93 -12 5 -176 272 -176 287 0 4 36 42 81 84 83
78 179 134 274 161 90 24 81 32 182 -164z m1103 -30 c57 -109 103 -203 102
-207 -2 -7 -395 -183 -409 -184 -10 0 -203 404 -196 411 7 7 380 176 393 178
3 0 52 -89 110 -198z m577 159 c66 -30 153 -86 153 -99 0 -4 -39 -24 -87 -44
l-88 -36 -47 101 c-27 55 -48 104 -48 109 0 13 44 1 117 -31z m849 -195 c30
-63 54 -117 54 -120 0 -3 -22 11 -49 30 -27 20 -93 56 -147 82 -82 38 -96 47
-79 54 35 16 160 67 163 68 2 1 28 -51 58 -114z m91 -10 c25 -33 54 -77 65
-99 19 -38 20 -40 2 -53 -10 -7 -23 -13 -29 -13 -10 0 -125 235 -125 255 0 14
40 -28 87 -90z m-577 -10 c44 -32 140 -138 140 -154 0 -13 -361 -154 -369
-145 -22 25 -132 287 -125 294 5 5 52 27 103 49 l95 39 54 -24 c30 -13 76 -40
102 -59z m-1383 -148 l101 -203 -195 -82 c-108 -46 -201 -81 -207 -79 -15 7
-208 375 -204 388 3 10 373 178 393 179 6 0 56 -91 112 -203z m-1139 -19 c45
-77 81 -142 80 -143 -14 -9 -431 -185 -438 -185 -5 0 -21 20 -36 45 l-26 45
35 75 c61 128 142 219 249 280 24 14 45 25 48 25 3 0 42 -64 88 -142z m2192 5
c34 -76 64 -143 67 -149 4 -11 -353 -162 -361 -153 -10 13 -147 281 -145 283
12 8 356 155 365 155 6 1 39 -61 74 -136z m580 69 c0 -8 -52 -42 -64 -42 -15
0 -4 17 22 32 30 19 42 22 42 10z m258 -85 c-15 -48 -43 -52 -33 -4 4 17 12
38 18 45 18 22 27 -2 15 -41z m-2330 -158 c57 -111 102 -202 100 -203 -2 -2
-81 -36 -175 -76 l-173 -73 -26 28 c-21 23 -31 27 -63 22 l-37 -5 -94 154
c-51 85 -91 156 -88 159 7 7 431 193 443 194 6 0 56 -90 113 -200z m2570 77
c48 -74 71 -120 166 -336 42 -96 106 -280 106 -305 0 -2 -14 -8 -30 -14 -30
-10 -31 -10 -60 52 l-30 62 6 -50 c3 -27 10 -58 15 -67 6 -10 5 -19 -1 -23 -5
-3 -10 -17 -10 -30 0 -19 5 -24 22 -22 18 2 32 -22 109 -188 48 -104 88 -197
88 -206 1 -9 -28 -31 -69 -55 -38 -21 -70 -42 -70 -45 0 -4 6 -12 14 -18 11
-9 27 -4 74 24 33 19 63 35 65 35 13 0 49 -203 62 -342 l6 -68 -41 0 c-22 0
-40 -4 -40 -9 0 -23 14 -41 31 -41 24 0 24 -2 -2 -53 -29 -57 -102 -148 -147
-185 l-38 -30 -18 140 c-9 77 -28 184 -42 237 -25 95 -29 188 -9 248 5 16 2
22 -10 25 -12 2 -23 25 -36 76 -10 40 -34 108 -54 151 -19 43 -35 86 -35 94 0
29 -52 181 -82 240 -16 32 -40 90 -55 130 -14 40 -41 102 -59 138 -28 57 -31
66 -15 62 15 -4 22 5 36 49 21 66 41 98 60 98 8 0 38 -18 67 -40 52 -39 81
-49 93 -30 7 11 -96 212 -150 294 -20 31 -36 58 -34 59 16 11 56 24 62 20 5
-3 30 -38 55 -77z m-1483 -69 c39 -72 71 -137 73 -143 2 -8 -238 -113 -415
-181 -7 -3 -39 49 -82 135 l-70 139 207 91 c114 50 209 91 212 91 3 1 37 -59
75 -132z m970 -23 c38 -82 64 -149 59 -154 -15 -15 -346 -141 -358 -137 -11 5
-141 286 -134 292 6 7 342 143 354 144 6 1 41 -65 79 -145z m133 -62 l32 -60
-31 -7 c-17 -4 -32 -5 -34 -3 -7 7 -115 239 -115 246 2 18 119 -123 148 -176z
m-2673 -115 l88 -147 -15 -46 -14 -46 -184 -79 c-101 -43 -189 -79 -195 -79
-10 0 -239 380 -233 386 2 1 102 45 223 97 197 86 220 94 230 79 7 -9 51 -83
100 -165z m2769 80 c37 -78 54 -129 39 -112 -37 39 -133 191 -133 210 0 3 13
-1 30 -10 21 -11 39 -36 64 -88z m-632 -64 c37 -82 64 -151 60 -154 -11 -11
-332 -133 -336 -128 -8 10 -146 273 -146 280 0 5 334 147 350 149 3 0 36 -66
72 -147z m-1023 -21 l69 -138 -191 -78 c-106 -43 -196 -79 -201 -80 -13 -2
-148 256 -139 265 9 8 374 168 385 169 5 0 39 -62 77 -138z m-1749 52 c12 -19
21 -36 19 -37 -35 -21 -150 -69 -155 -64 -7 7 93 137 106 137 5 0 18 -16 30
-36z m3415 -103 c55 -84 135 -251 138 -288 2 -22 -4 -29 -36 -41 -20 -8 -39
-13 -41 -11 -7 9 -176 376 -176 382 0 8 38 25 57 26 6 1 32 -30 58 -68z
m-1027 -82 c41 -77 71 -143 68 -146 -6 -7 -357 -143 -368 -143 -4 0 -8 39 -8
88 0 99 -10 145 -43 193 l-23 34 140 57 c78 31 146 57 151 57 6 0 43 -63 83
-140z m1132 124 c0 -5 -14 -16 -30 -25 -23 -13 -30 -14 -30 -4 0 7 10 18 23
24 27 13 37 14 37 5z m-3351 -221 c56 -95 100 -176 97 -180 -6 -10 -435 -196
-439 -191 -2 2 -27 41 -55 87 l-52 83 19 92 c10 51 28 117 40 148 l21 56 122
56 c111 51 123 54 133 39 7 -9 58 -95 114 -190z m3186 18 c49 -105 86 -192 83
-195 -3 -3 -84 -36 -181 -74 -125 -49 -179 -65 -185 -57 -12 15 -172 364 -172
373 0 9 326 140 351 142 12 1 41 -53 104 -189z m-2041 36 c36 -68 66 -128 66
-133 0 -8 -360 -157 -399 -165 -8 -2 -28 20 -46 50 -26 42 -33 67 -38 125 -3
40 -7 78 -9 85 -2 8 59 40 167 87 94 41 175 75 182 75 6 0 41 -56 77 -124z
m582 -3 c-6 -15 -9 -15 -16 -3 -6 9 -5 17 3 22 16 10 21 2 13 -19z m1058 -191
c47 -101 86 -186 86 -190 0 -9 -299 -124 -312 -120 -15 5 -211 372 -201 375 4
2 80 32 168 67 88 35 163 61 167 58 4 -4 45 -89 92 -190z m-1098 156 c11 -22
16 -53 15 -93 -2 -56 10 -139 24 -177 5 -13 -21 -27 -150 -78 -87 -33 -158
-60 -160 -58 -1 2 -35 65 -75 140 -71 137 -72 138 -48 147 12 5 100 41 193 80
94 39 173 70 177 71 4 0 15 -15 24 -32z m-1166 -136 c0 -73 23 -151 54 -185
l24 -26 -139 -55 c-77 -31 -143 -56 -149 -56 -9 0 -140 213 -140 228 0 8 316
150 338 151 8 1 12 -17 12 -57z m1894 -151 c53 -99 97 -185 98 -191 2 -7 -71
-41 -172 -80 l-175 -68 -5 44 c-7 55 -20 69 -20 21 0 -54 -15 -83 -49 -95
l-31 -11 -91 180 c-49 100 -89 188 -87 197 2 12 70 43 213 99 116 45 213 82
217 82 3 1 49 -80 102 -178z m-1104 9 c38 -69 69 -129 69 -135 1 -8 -390 -169
-394 -162 -23 32 -157 258 -157 263 1 10 383 164 400 161 8 -1 45 -58 82 -127z
m2135 22 c34 -74 78 -224 68 -233 -5 -4 -18 -10 -31 -14 -20 -6 -27 4 -87 131
-36 75 -65 140 -65 144 0 9 72 38 82 33 4 -2 19 -29 33 -61z m379 11 c37 -74
86 -274 67 -273 -4 1 -120 241 -139 290 -2 5 27 24 45 29 2 1 13 -20 27 -46z
m-3064 -28 c0 -9 -53 -35 -72 -35 -2 0 5 20 16 45 l21 45 17 -23 c10 -12 18
-27 18 -32z m-555 -91 c37 -63 66 -116 64 -118 -8 -6 -434 -176 -441 -176 -4
0 -37 50 -74 112 -54 90 -65 113 -53 121 30 18 424 184 430 181 4 -2 37 -56
74 -120z m3156 -10 c35 -75 65 -140 67 -144 4 -10 -347 -153 -361 -147 -12 4
-132 261 -132 280 0 8 332 144 356 146 3 1 35 -60 70 -135z m-3777 35 c20 -34
33 -65 29 -69 -4 -4 -26 -14 -48 -23 -22 -8 -57 -23 -79 -32 l-38 -16 6 27
c12 45 78 184 86 179 4 -3 24 -32 44 -66z m1288 -116 c68 -115 74 -129 60
-141 -15 -11 -19 -8 -34 28 -22 51 -28 51 -17 -1 6 -23 8 -43 6 -45 -8 -8
-397 -157 -400 -153 -2 2 -38 62 -80 132 -75 125 -76 128 -54 137 88 39 415
168 427 169 10 1 45 -48 92 -126z m904 116 c4 -7 21 -9 43 -5 l37 6 84 -170
c46 -93 82 -171 80 -173 -11 -9 -380 -150 -383 -146 -2 2 -48 87 -101 189 -74
141 -94 187 -84 193 23 15 282 115 300 116 9 1 20 -4 24 -10z m1190 -204 c34
-77 60 -143 56 -146 -8 -8 -274 -119 -284 -119 -8 0 -162 290 -157 294 14 11
297 115 308 113 7 -1 42 -65 77 -142z m-3264 17 c25 -42 56 -93 67 -113 l21
-36 -187 -77 c-104 -42 -194 -76 -200 -76 -19 0 -15 151 5 228 l17 64 105 43
c58 24 110 44 115 44 6 0 31 -34 57 -77z m1804 -127 c52 -99 92 -184 91 -188
-3 -11 -246 -106 -271 -107 -11 0 -51 14 -89 32 l-69 32 -76 130 c-42 72 -76
133 -75 135 3 9 368 150 382 148 7 -1 56 -83 107 -182z m-1131 4 c44 -73 74
-134 69 -138 -11 -10 -435 -173 -439 -169 -11 13 -154 252 -152 255 3 2 435
180 443 183 1 0 37 -59 79 -131z m2248 -28 c53 -103 73 -150 65 -154 -7 -3
-103 -42 -213 -87 -110 -45 -210 -86 -223 -91 -21 -8 -26 -1 -80 109 l-58 117
18 51 19 50 192 76 c106 42 194 76 197 77 3 0 40 -66 83 -148z m940 81 c36
-80 83 -281 62 -260 -5 5 -39 74 -76 155 -58 128 -65 149 -51 155 33 13 39 8
65 -50z m-16 -181 c51 -112 92 -205 91 -206 -2 -2 -78 -46 -170 -98 -117 -67
-170 -92 -176 -83 -26 34 -203 439 -196 446 13 13 337 149 348 146 5 -1 51
-94 103 -205z m-2510 47 c29 -49 49 -88 44 -88 -12 0 -98 96 -122 134 -10 16
-16 34 -13 38 14 22 42 -4 91 -84z m-123 49 c17 -69 124 -194 226 -265 29 -20
55 -42 57 -48 4 -12 -444 -187 -462 -181 -12 5 -215 342 -215 357 0 7 357 155
381 159 4 1 9 -9 13 -22z m1186 -31 c0 -3 -4 -8 -10 -11 -5 -3 -10 -1 -10 4 0
6 5 11 10 11 6 0 10 -2 10 -4z m-2205 -135 c42 -68 74 -125 73 -127 -2 -1 -66
-27 -143 -57 -77 -30 -163 -64 -192 -76 l-52 -20 -75 120 c-42 66 -76 124 -76
129 0 8 370 161 382 157 4 -1 41 -58 83 -126z m2163 93 c4 -26 -90 -114 -157
-148 -36 -19 -170 -66 -186 -66 -9 0 -57 95 -49 97 5 2 88 35 184 73 96 37
182 68 190 67 8 -1 16 -12 18 -23z m1102 -206 c57 -123 104 -225 106 -228 3
-6 -232 -140 -245 -140 -12 0 -264 474 -254 478 4 1 64 27 133 56 69 30 132
54 141 55 12 1 45 -62 119 -221z m-962 -72 c-17 -12 -362 -146 -369 -144 -5 2
-28 35 -49 75 l-40 71 41 7 c71 12 194 81 256 144 l58 59 53 -105 c29 -58 52
-106 50 -107z m-1613 28 c58 -97 107 -181 108 -186 1 -5 -97 -48 -217 -95
-171 -66 -221 -82 -227 -71 -4 7 -55 90 -113 183 -88 144 -102 171 -88 178 27
13 416 165 424 166 4 1 55 -78 113 -175z m2268 -99 c70 -129 127 -239 127
-243 0 -5 -38 -30 -84 -55 l-84 -47 -183 2 -184 3 -97 190 c-53 105 -94 192
-92 194 5 5 456 190 464 191 3 0 62 -106 133 -235z m-3387 94 c40 -62 74 -119
74 -125 0 -13 -228 -100 -237 -90 -9 9 22 190 47 269 12 38 26 67 32 65 6 -2
44 -56 84 -119z m2184 80 c12 -23 19 -43 17 -46 -10 -9 -184 -14 -221 -6 l-40
9 105 41 c57 23 107 42 111 42 4 1 17 -17 28 -40z m-1538 -269 c59 -96 108
-177 108 -180 0 -3 -37 -20 -83 -37 -78 -31 -89 -33 -213 -33 -112 0 -133 3
-146 18 -23 26 -171 262 -167 266 14 11 367 144 379 142 8 0 63 -80 122 -176z
m1235 165 c43 -12 99 -15 211 -14 l153 3 40 -74 c22 -40 36 -76 32 -81 -18
-16 -336 -139 -343 -132 -4 4 -46 73 -94 152 -67 110 -85 146 -74 152 16 11 7
12 75 -6z m2315 -41 c15 -55 37 -209 40 -289 l3 -80 -141 -3 -141 -3 -52 112
c-35 76 -49 115 -42 122 19 19 306 177 315 174 6 -2 14 -17 18 -33z m-2343
-125 c50 -83 91 -153 89 -154 -2 -2 -54 -24 -116 -49 l-113 -46 -144 0 -145 0
-60 103 c-33 56 -61 107 -61 112 -1 10 413 182 442 184 10 1 49 -54 108 -150z
m994 -54 c48 -96 87 -180 87 -185 0 -6 -81 -10 -220 -10 l-220 0 -56 111 c-30
61 -54 112 -52 113 14 10 346 145 358 145 10 1 46 -60 103 -174z m-2660 -50
c42 -69 77 -130 77 -135 0 -7 -77 -9 -217 -8 l-218 3 0 79 0 79 135 52 c74 29
137 54 140 54 3 0 40 -56 83 -124z m1130 -31 c31 -52 57 -99 57 -105 0 -5
-106 -9 -263 -9 -251 0 -265 1 -282 20 -18 19 -17 20 11 30 16 6 115 44 219
84 105 41 192 74 195 75 3 0 31 -42 63 -95z m1083 -4 c29 -54 49 -102 46 -105
-3 -3 -94 -5 -203 -5 -195 0 -199 0 -213 23 -29 44 -26 46 144 117 91 38 167
69 170 69 3 0 28 -44 56 -99z m1469 4 c25 -53 45 -100 45 -105 0 -5 -68 -9
-150 -9 l-150 0 -20 33 c-11 17 -20 34 -20 37 0 5 239 140 248 140 1 0 23 -43
47 -96z m-1885 -85 c7 -11 10 -23 7 -25 -3 -3 -33 -4 -68 -2 l-64 3 45 22 c56
28 66 28 80 2z m1574 5 c11 -30 6 -34 -44 -34 -58 0 -63 10 -17 33 41 20 53
21 61 1z m-2774 -24 c0 -5 -9 -10 -21 -10 -11 0 -17 5 -14 10 3 6 13 10 21 10
8 0 14 -4 14 -10z"/>
<path d="M4191 2887 c-19 -11 -29 -23 -23 -25 12 -4 68 23 77 38 10 16 -17 10
-54 -13z"/>
<path d="M4246 2721 c-19 -58 -20 -71 -6 -71 12 0 26 33 35 84 11 54 -10 44
-29 -13z"/>
</g>
</svg>
